<?xml version="1.0" encoding="UTF-8" standalone="no"?>
<svg
   width="1189mm"
   height="841mm"
   viewBox="0 0 1189 841"
   version="1.1"
   preserveAspectRatio="xMidYMid meet"
   id="svg971"
   sodipodi:docname="models.svg"
   inkscape:version="1.1 (c4e8f9e, 2021-05-24)"
   xmlns:inkscape="http://www.inkscape.org/namespaces/inkscape"
   xmlns:sodipodi="http://sodipodi.sourceforge.net/DTD/sodipodi-0.dtd"
   xmlns="http://www.w3.org/2000/svg"
   xmlns:svg="http://www.w3.org/2000/svg"
   xmlns:rdf="http://www.w3.org/1999/02/22-rdf-syntax-ns#"
   xmlns:cc="http://creativecommons.org/ns#"
   xmlns:dc="http://purl.org/dc/elements/1.1/">
  <metadata
     id="metadata45">
    <rdf:RDF>
      <cc:Work
         rdf:about="">
        <dc:format>image/svg+xml</dc:format>
        <dc:type
           rdf:resource="http://purl.org/dc/dcmitype/StillImage" />
      </cc:Work>
    </rdf:RDF>
  </metadata>
  <defs
     id="defs975" />
  <sodipodi:namedview
     id="namedview973"
     pagecolor="#ffffff"
     bordercolor="#666666"
     borderopacity="1.0"
     inkscape:pageshadow="2"
     inkscape:pageopacity="0.0"
     inkscape:pagecheckerboard="0"
     inkscape:document-units="mm"
     showgrid="false"
     inkscape:zoom="0.28954717"
     inkscape:cx="1303.7599"
     inkscape:cy="885.86602"
     inkscape:window-width="1664"
     inkscape:window-height="1011"
     inkscape:window-x="0"
     inkscape:window-y="23"
     inkscape:window-maximized="0"
     inkscape:current-layer="svg971"
     inkscape:document-rotation="0" />
  <path
     d="M 120.10001,204.07309 H 101.686 v 3 H 73.962007 v -3 h -27.724 v 3 H 18.514003 v -3 H 0.1 v 38.414 h 3 v 27.724 h -3 v 27.724 h 3 v 27.724 h -3 v 27.724 10.69 h 18.414003 v -3 h 27.724004 v 3 h 27.724 v -3 H 101.686 v 3 h 18.41401 v -38.414 h -3 v -27.724 h 3 v -27.724 h -3 v -27.724 h 3 v -27.724 z"
     id="back_outsideCutPath"
     stroke="#FF0000"
     stroke-width="0.2"
     style="font-size:12px;fill:none;fill-rule:evenodd;stroke:#ff0000;stroke-width:0.2;stroke-linecap:round"
     vector-effect="non-scaling-stroke" />
  <g
     id="g905"
     transform="rotate(-90,270.66024,163.12041)">
    <path
       d="m 236.68065,215.08933 v 18.414 h -3 v 27.724 h 3 v 27.724 h -3 v 27.724 h 3 v 18.414 h 27.69 v -3 h 27.724 v 3 h 27.724 v -3 h 27.724 v 3 h 27.724 v -3 h 27.724 v 3 h 27.69 v -18.414 h 3 v -27.724 h -3 v -27.724 h 3 v -27.724 h -3 v -18.414 h -27.69 v 3 h -27.724 v -3 h -27.724 v 3 h -27.724 v -3 h -27.724 v 3 h -27.724 v -3 z"
       id="right_outsideCutPath"
       stroke="#FF0000"
       stroke-width="0.2"
       style="font-size:12px;fill:none;fill-rule:evenodd;stroke:#ff0000;stroke-width:0.2;stroke-linecap:round"
       vector-effect="non-scaling-stroke" />
    <g
       id="g1075"
       transform="translate(76.179853,55.089044)">
      <rect
         style="fill:none;fill-opacity:1;stroke:#ff0000;stroke-width:0.197322;stroke-miterlimit:4;stroke-dasharray:none;stroke-opacity:1"
         id="rect5376"
         width="9"
         height="10.999993"
         x="329.60596"
         y="258.44495" />
      <rect
         style="fill:none;fill-opacity:1;stroke:#ff0000;stroke-width:0.210327;stroke-linejoin:miter;stroke-miterlimit:4;stroke-dasharray:none;stroke-opacity:1"
         id="rect5994"
         width="13.29"
         height="11.789674"
         x="297.60596"
         y="258.45145" />
    </g>
    <circle
       style="fill:none;fill-opacity:1;stroke:#ff0000;stroke-width:0.2;stroke-miterlimit:4;stroke-dasharray:none;stroke-opacity:1"
       id="path7187"
       cx="276.71317"
       cy="294.61362"
       r="11.5" />
  </g>
  <g
     id="g1216"
     transform="rotate(90,271.99422,61.67884)">
    <path
       d="m 407.41538,14.57306 h -27.69 v -3 h -27.724 v 3 h -27.724 v -3 h -27.724 v 3 h -27.724 v -3 h -27.724 v 3 h -27.69 v 35.414 h -3 v 27.724 h 3 v 27.724 h -3 v 27.724 h 3 v 27.724 7.69 h 27.69 v 3 h 27.724 v -3 h 27.724 v 3 h 27.724 v -3 h 27.724 v 3 h 27.724 v -3 h 27.69 v -35.414 h 3 v -27.724 h -3 v -27.724 h 3 v -27.724 h -3 v -27.724 z"
       id="top_outsideCutPath"
       stroke="#FF0000"
       stroke-width="0.2"
       style="font-size:12px;fill:none;fill-rule:evenodd;stroke:#ff0000;stroke-width:0.2;stroke-linecap:round"
       vector-effect="non-scaling-stroke" />
    <rect
       style="fill:none;fill-opacity:1;stroke:#ff0000;stroke-width:0.2;stroke-miterlimit:4;stroke-dasharray:none;stroke-opacity:1"
       id="rect3582"
       width="129.79999"
       height="69.800003"
       x="26.673065"
       y="-394.9935"
       transform="rotate(90)" />
    <circle
       style="fill:none;fill-opacity:0.442623;stroke:#ff0000;stroke-width:0.2;stroke-linejoin:miter"
       id="path2325-2"
       cx="74.073059"
       cy="-404.39337"
       r="1.4"
       transform="rotate(90)" />
    <circle
       style="fill:none;fill-opacity:0.442623;stroke:#ff0000;stroke-width:0.2;stroke-linejoin:miter"
       id="path2325-4-7"
       cx="109.07306"
       cy="-404.39337"
       r="1.4"
       transform="rotate(90)" />
    <circle
       style="fill:none;fill-opacity:0.442623;stroke:#ff0000;stroke-width:0.2;stroke-linejoin:miter"
       id="path2325-8-6"
       cx="74.073059"
       cy="-385.79337"
       r="1.4"
       transform="rotate(90)" />
    <circle
       style="fill:none;fill-opacity:0.442623;stroke:#ff0000;stroke-width:0.2;stroke-linejoin:miter"
       id="path2325-4-3-1"
       cx="109.07306"
       cy="-385.79337"
       r="1.4"
       transform="rotate(90)" />
    <circle
       style="fill:none;fill-opacity:0.442623;stroke:#ff0000;stroke-width:0.2;stroke-linejoin:miter;stroke-miterlimit:4;stroke-dasharray:none"
       id="path2971"
       cx="85"
       cy="-310.51337"
       r="4.9000001"
       transform="rotate(90)" />
    <rect
       style="fill:none;fill-opacity:0.442623;stroke:#ff0000;stroke-width:0.207403;stroke-miterlimit:4;stroke-dasharray:none;stroke-opacity:1"
       id="rect3419"
       width="3.2261963"
       height="19.9"
       x="104.24686"
       y="-314.41537"
       transform="rotate(90)" />
  </g>
  <g
     id="g1224"
     transform="rotate(90,89.994209,81.678841)">
    <path
       d="m 11.415369,168.57305 h 27.69 v 3 h 27.724 v -3 h 27.724 v 3 h 27.724001 v -3 h 27.724 v 3 h 27.724 v -3 h 27.69 v -35.414 h 3 v -27.724 h -3 V 77.711054 h 3 v -27.724 h -3 v -27.724 -7.69 h -27.69 v -3 h -27.724 v 3 h -27.724 v -3 H 94.553369 v 3 h -27.724 v -3 h -27.724 v 3 h -27.69 v 35.414 h -3 v 27.724 h 3 v 27.723996 h -3 v 27.724 h 3 v 27.724 z"
       id="bottom_outsideCutPath"
       stroke="#FF0000"
       stroke-width="0.2"
       style="font-size:12px;fill:none;fill-rule:evenodd;stroke:#ff0000;stroke-width:0.2;stroke-linecap:round"
       vector-effect="non-scaling-stroke" />
    <circle
       r="1"
       cy="-83.562263"
       cx="-70.815369"
       id="circle1085"
       style="fill:none;fill-opacity:0.442623;stroke:#ff0000;stroke-width:0.2;stroke-miterlimit:4.37037;stroke-dasharray:none;stroke-opacity:1"
       transform="scale(-1)" />
    <circle
       style="fill:none;fill-opacity:0.442623;stroke:#ff0000;stroke-width:0.2;stroke-miterlimit:4.37037;stroke-dasharray:none;stroke-opacity:1"
       id="circle1087"
       cx="-32.715366"
       cy="-83.562263"
       r="1"
       transform="scale(-1)" />
    <circle
       style="fill:none;fill-opacity:0.442623;stroke:#ff0000;stroke-width:0.2;stroke-miterlimit:4.37037;stroke-dasharray:none;stroke-opacity:1"
       id="circle1089"
       cx="-75.915367"
       cy="-21.362469"
       r="1"
       transform="scale(-1)" />
    <ellipse
       style="fill:none;fill-opacity:0.442623;stroke:#ff0000;stroke-width:0.2;stroke-miterlimit:4.37037;stroke-dasharray:none;stroke-opacity:1"
       id="ellipse1091"
       cx="-27.215368"
       cy="-21.362041"
       rx="0.99999994"
       ry="1"
       transform="scale(-1)" />
    <rect
       style="fill:none;fill-opacity:0.442623;stroke:#ff0000;stroke-width:0.216132;stroke-miterlimit:4;stroke-dasharray:none;stroke-opacity:1"
       id="rect4237"
       width="3.5034697"
       height="19.999998"
       x="-79.176529"
       y="104.31536"
       transform="rotate(-90)" />
  </g>
  <path
     d="m 253.14366,202.81607 v 18.414 h -3 v 27.724 h 3 v 27.724 h -3 v 27.724 h 3 v 18.414 h 27.69 v -3 h 27.724 v 3 h 27.724 v -3 h 27.724 v 3 h 27.724 v -3 h 27.724 v 3 h 27.69 v -18.414 h 3 v -27.724 h -3 v -27.724 h 3 v -27.724 h -3 v -18.414 h -27.69 v 3 h -27.724 v -3 h -27.724 v 3 h -27.724 v -3 h -27.724 v 3 h -27.724 v -3 z"
     id="left_outsideCutPath"
     stroke="#FF0000"
     stroke-width="0.2"
     style="font-size:12px;fill:none;fill-rule:evenodd;stroke:#ff0000;stroke-width:0.2;stroke-linecap:round"
     vector-effect="non-scaling-stroke" />
  <g
     id="g1206"
     transform="rotate(180,334.27237,181.28427)">
    <path
       d="m 541.89275,2.4685354 h -18.414 v 3 h -27.724 v -3 h -27.724 v 3 h -27.724 v -3 h -18.414 V 40.882545 h 3 v 27.724002 h -3 v 27.724 h 3 v 27.724003 h -3 v 27.724 10.69 h 18.414 v -3 h 27.724 v 3 h 27.724 v -3 h 27.724 v 3 h 18.414 v -38.414 h -3 V 96.330547 h 3 v -27.724 h -3 V 40.882545 h 3 v -27.72401 z"
       id="front_outsideCutPath"
       stroke="#FF0000"
       stroke-width="0.2"
       style="font-size:12px;fill:none;fill-rule:evenodd;stroke:#ff0000;stroke-width:0.2;stroke-linecap:round"
       vector-effect="non-scaling-stroke" />
    <rect
       style="fill:none;fill-opacity:1;stroke:#ff0000;stroke-width:0.2;stroke-miterlimit:4;stroke-dasharray:none;stroke-opacity:1"
       id="rect1492"
       width="98"
       height="39"
       x="18.796165"
       y="-474.92905"
       transform="rotate(90)" />
    <g
       id="g1658"
       transform="rotate(90,411.57144,414.03997)">
      <circle
         style="fill:none;fill-opacity:0.442623;stroke:#ff0000;stroke-width:0.2;stroke-miterlimit:4;stroke-dasharray:none;stroke-opacity:1"
         id="path4683"
         cx="137.37801"
         cy="356.92398"
         r="3.4000001" />
      <rect
         style="fill:none;fill-opacity:0.442623;stroke:#ff0000;stroke-width:0.2;stroke-miterlimit:4;stroke-dasharray:none;stroke-opacity:1"
         id="rect1406"
         width="12"
         height="12"
         x="131.37801"
         y="374.8407" />
    </g>
  </g>
  <g
     id="g1435"
     transform="translate(443.58751)">
    <path
       style="fill:none;stroke:#ff0000;stroke-width:0.2;stroke-linecap:butt;stroke-linejoin:miter;stroke-miterlimit:4;stroke-dasharray:none;stroke-opacity:1"
       d="M 10.19996,117.1 H 0.1 V 3.1 h 10.09996 v -3 h 19.8 v 3 h 29.717565 c -0.03333,127.94742 -0.06667,76 -0.1,114 H 29.99996 v 3 h -19.8 z"
       id="path2327-0"
       sodipodi:nodetypes="ccccccccccccc" />
    <rect
       y="-58.338001"
       x="-49.908775"
       height="20"
       width="40"
       id="rect2056-5"
       style="fill:none;fill-opacity:0.442623;stroke:#ff0000;stroke-width:0.2;stroke-miterlimit:4.37037;stroke-dasharray:none;stroke-opacity:1"
       transform="scale(-1)" />
    <g
       id="g3868"
       transform="translate(-2.8912224)">
      <circle
         cy="-8.0999985"
         cx="42.738003"
         id="path2058-7"
         style="fill:none;fill-opacity:0.442623;stroke:#ff0000;stroke-width:0.2;stroke-miterlimit:4.37037;stroke-dasharray:none;stroke-opacity:1"
         transform="rotate(90)"
         r="2.5" />
      <circle
         cy="-8.0999985"
         cx="53.938"
         id="circle3342"
         style="fill:none;fill-opacity:0.442623;stroke:#ff0000;stroke-width:0.2;stroke-miterlimit:4.37037;stroke-dasharray:none;stroke-opacity:1"
         transform="rotate(90)"
         r="2.5" />
    </g>
    <circle
       cy="-54.608776"
       cx="42.809193"
       id="path2058-2"
       style="fill:none;fill-opacity:0.442623;stroke:#ff0000;stroke-width:0.2;stroke-miterlimit:4.37037;stroke-dasharray:none;stroke-opacity:1"
       transform="rotate(90)"
       r="2.5" />
    <circle
       cy="-54.608776"
       cx="54.00919"
       id="circle3342-6"
       style="fill:none;fill-opacity:0.442623;stroke:#ff0000;stroke-width:0.2;stroke-miterlimit:4.37037;stroke-dasharray:none;stroke-opacity:1"
       transform="rotate(90)"
       r="2.5" />
  </g>
  <g
     inkscape:label="Calque 1"
     id="layer1-2-1"
     transform="rotate(-90,314.3291,-125.85114)">
    <path
       id="rect7228-6"
       style="fill:none;fill-opacity:0.442623;stroke:#ff0000;stroke-width:0.2"
       d="m -11.692312,8.550905 v 39.999626 c 0,5.539999 4.4599429,9.980409 9.9999069,10.000421 l 51.7921901,0.18709 c 5.539963,0.02001 10.000422,-4.460423 10.000422,-10.000422 V 18.7379 H 50.099785 v 19.999812 c 0,5.540002 -4.460001,10.032509 -9.999909,9.999908 L 8.3075015,48.550531 C 2.7675971,48.51793 -1.6924051,44.090624 -1.6924051,38.550622 V 8.550905 c -3.9768662,-6.4502024 -10.9130279,-7.5472352 -9.9999069,0 z"
       sodipodi:nodetypes="cssssccsssscc" />
    <circle
       style="fill:none;fill-opacity:0.442623;stroke:#ff0000;stroke-width:0.2"
       id="path7949-8"
       cx="55.131706"
       cy="24.655792"
       r="2.6500001" />
  </g>
</svg>
